<svg width="31" height="31" viewBox="0 0 31 31" fill="none" xmlns="http://www.w3.org/2000/svg">
<path d="M24.2342 22.3679C22.7491 21.97 21.377 21.3435 20.1532 20.5497C19.7695 20.2916 19.2695 20.2741 18.8561 20.5127L16.3231 22.3834C13.3429 19.8378 10.9683 15.9016 10.2138 11.9077L13.1053 10.5343C13.5218 10.2836 13.7446 9.83857 13.725 9.38039C13.6374 7.92046 13.793 6.42218 14.1909 4.93706C14.3656 4.28506 13.9679 3.59615 13.3159 3.42144L9.13825 2.30205C8.48625 2.12735 7.62379 2.20684 7.38114 3.11239C4.37561 14.3292 11.2113 26.1512 22.416 29.1535C23.2733 29.3832 23.8152 28.7132 23.9931 28.0491L25.1092 23.8835C25.284 23.2315 24.8862 22.5426 24.2342 22.3679Z" fill="white"/>
</svg>
