<svg width="26" height="26" viewBox="0 0 26 26" fill="none" xmlns="http://www.w3.org/2000/svg">
<path d="M0.200195 1.59091H4.56383L7.50929 16.2091C7.72747 17.1909 8.6002 17.9545 9.6911 17.9545H20.2729C21.3638 17.9545 22.2366 17.1909 22.4547 16.2091L24.2002 7.04546H5.65474M8.92747 22.3182C9.58201 22.3182 10.0184 22.7545 10.0184 23.4091C10.0184 24.0636 9.58201 24.5 8.92747 24.5C8.27292 24.5 7.83656 24.0636 7.83656 23.4091C7.83656 22.7545 8.27292 22.3182 8.92747 22.3182ZM19.8366 23.4091C19.8366 24.0636 20.2729 24.5 20.9275 24.5C21.582 24.5 22.0184 24.0636 22.0184 23.4091C22.0184 22.7545 21.582 22.3182 20.9275 22.3182C20.2729 22.3182 19.8366 22.7545 19.8366 23.4091Z" stroke="white" stroke-width="1.81818"/>
</svg>
