<svg width="50" height="65" viewBox="0 0 50 65" fill="none" xmlns="http://www.w3.org/2000/svg">
<path d="M33.7468 2.18044V2.43044H33.9968H45.5947C47.4565 2.43044 48.988 3.98963 48.988 5.87795V61.1364C48.988 63.0034 47.4574 64.5635 45.5947 64.5635H4.40503C2.56169 64.5635 1.01172 63.0025 1.01172 61.1364V5.87795C1.01172 3.99054 2.56258 2.43044 4.40503 2.43044H16.0636H16.3136V2.18044V1.5063C16.3136 1.25696 16.4356 0.98477 16.6428 0.771365C16.8493 0.558554 17.1168 0.428467 17.3793 0.428467H32.6407C32.8958 0.428467 33.1753 0.555926 33.3952 0.769096C33.6151 0.98225 33.7468 1.25302 33.7468 1.5063V2.18044ZM37.3902 19.2534H37.3901V19.2585C37.3901 19.6674 37.1803 20.1078 36.8401 20.4512C36.5003 20.7942 36.0599 21.0104 35.6363 21.0104H23.3502C22.9375 21.0104 22.4968 20.7948 22.1534 20.4506C21.8099 20.1062 21.5964 19.6658 21.5964 19.2585C21.5964 18.8381 21.8073 18.3924 22.147 18.0473C22.4866 17.7022 22.9268 17.4861 23.3502 17.4861H35.6363C36.0604 17.4861 36.5057 17.7027 36.8477 18.0479C37.1899 18.3932 37.3986 18.8368 37.3902 19.2534ZM37.3902 50.4065H37.3901V50.4116C37.3901 51.0081 37.1698 51.4394 36.8512 51.724C36.5282 52.0126 36.0889 52.1635 35.6363 52.1635H23.3502C22.9086 52.1635 22.4687 52.0131 22.1423 51.7235C21.8206 51.438 21.5964 51.0064 21.5964 50.4116C21.5964 49.9912 21.8073 49.5455 22.147 49.2004C22.4866 48.8553 22.9268 48.6392 23.3502 48.6392H35.6363C36.0604 48.6392 36.5057 48.8558 36.8477 49.201C37.1899 49.5463 37.3986 49.9899 37.3902 50.4065ZM37.3902 40.0291L37.3901 40.029V40.034C37.3901 40.4648 37.1791 40.9046 36.8413 41.2409C36.5035 41.5772 36.063 41.786 35.6363 41.786H23.3502C22.9344 41.786 22.4936 41.5778 22.1522 41.2403C21.8112 40.903 21.5964 40.4633 21.5964 40.034C21.5964 39.6032 21.8075 39.1634 22.1452 38.8272C22.483 38.4908 22.9235 38.282 23.3502 38.282H35.6363C36.0636 38.282 36.5093 38.4913 36.8495 38.8277C37.1896 39.1641 37.3986 39.6019 37.3902 40.0291ZM37.3902 29.3041H37.3901V29.3092C37.3901 29.7181 37.1803 30.1585 36.8401 30.5019C36.5003 30.8449 36.0599 31.0611 35.6363 31.0611H23.3502C22.9375 31.0611 22.4968 30.8455 22.1534 30.5013C21.8099 30.1569 21.5964 29.7166 21.5964 29.3092C21.5964 28.8783 21.8075 28.4386 22.1452 28.1023C22.483 27.766 22.9235 27.5572 23.3502 27.5572H35.6363C36.062 27.5572 36.5077 27.7702 36.8489 28.11C37.1903 28.4499 37.3986 28.888 37.3902 29.3041ZM4.49912 60.7891V61.0391H4.74912H45.0006H45.2506H45.2708V60.7891H45.5006V6.2048V5.9548H45.2506H33.9766H33.7266V6.2048V6.53166C33.7266 7.42834 33.1188 7.95677 32.6204 7.95677H17.359C16.8494 7.95677 16.2934 7.4593 16.2934 6.53166V6.2048V5.9548H16.0434H4.74912H4.49912V6.2048V60.7891ZM15.3754 47.3113C17.2685 47.3113 18.7688 48.5734 18.7688 50.432C18.7688 52.2972 17.2399 53.8386 15.3754 53.8386C14.6388 53.8386 13.8767 53.4648 13.2938 52.8404C12.7127 52.2181 12.3262 51.3634 12.3262 50.432C12.3262 48.5398 13.8611 47.3113 15.3754 47.3113ZM15.3754 16.1582C17.2685 16.1582 18.7688 17.4204 18.7688 19.2789C18.7688 21.1459 17.2381 22.706 15.3754 22.706C14.6398 22.706 13.8778 22.328 13.2944 21.6983C12.7128 21.0706 12.3262 20.2105 12.3262 19.2789C12.3262 17.3867 13.8611 16.1582 15.3754 16.1582ZM15.3754 36.9542C17.2717 36.9542 18.7688 38.1988 18.7688 40.034C18.7688 41.901 17.2381 43.4611 15.3754 43.4611C14.6398 43.4611 13.8778 43.0831 13.2944 42.4534C12.7128 41.8257 12.3262 40.9656 12.3262 40.034C12.3262 38.1846 13.859 36.9542 15.3754 36.9542ZM15.3754 26.2089C17.2674 26.2089 18.7688 27.4905 18.7688 29.3296C18.7688 31.1966 17.2381 32.7567 15.3754 32.7567C14.6398 32.7567 13.8778 32.3787 13.2944 31.749C12.7128 31.1213 12.3262 30.2612 12.3262 29.3296C12.3262 27.4762 13.8632 26.2089 15.3754 26.2089Z" fill="#DF2127" stroke="white" stroke-width="0.5"/>
</svg>
