<svg width="18" height="21" viewBox="0 0 18 21" fill="none" xmlns="http://www.w3.org/2000/svg">
<path d="M3.68079 18.7378C5.39111 19.4979 7.70612 20.2885 9.55199 20.1027C12.2424 19.8318 17.5 18.5878 17.5 13.3822C17.5 13.3316 17.3926 12.9544 17.3555 12.9397C17.1399 12.3088 16.8847 11.7424 16.5104 11.1495C16.0131 10.3602 15.4896 7.42962 15.7908 6.48623C15.8081 6.43319 15.7135 6.38643 15.6714 6.38894C14.594 6.47148 13.5578 8.29079 13.4345 9.33524C9.86661 4.86212 10.661 1.15665 11.1976 0.24997C11.2012 0.246282 11.2039 0.241564 11.2053 0.236316C11.2067 0.231068 11.2069 0.225484 11.2057 0.220155C11.2062 0.16492 11.1092 0.109685 11.0598 0.137616C7.6534 0.871995 3.53352 7.79618 3.72988 8.8353C3.01892 8.32625 3.48192 5.58332 3.74717 4.81253C3.76893 4.75008 3.64091 4.69171 3.59489 4.72623C2.82731 5.29898 1.61011 6.94819 0.322635 11.2675C-0.964844 15.5869 1.89824 17.9432 3.68079 18.7378Z" fill="#E22A2A"/>
<path d="M14.5483 12.2264C14.344 13.1963 14.2248 14.2826 13.0923 14.5825C11.1834 15.0899 12.1758 11.4771 12.0966 10.6061C11.9625 9.16189 10.692 8.17201 9.38723 7.63026C9.33647 7.60904 10.8837 10.133 8.51249 10.7372C7.7731 10.926 7.03801 10.4345 6.93195 9.63373C6.88271 9.25176 7.04836 8.13799 6.9875 8.19073C6.40266 8.6916 5.82312 9.25831 5.7567 10.0435C5.71403 10.5656 5.92463 11.131 6.01175 11.6413C6.15291 12.4817 5.89079 13.1766 4.89004 13.1847C3.66026 13.1938 4.02717 10.5297 4.0249 10.5362C3.9999 10.5113 -0.630367 15.8882 6.36907 19.6236C8.40694 20.7112 11.8761 19.9092 13.6299 18.5255C15.9026 16.7323 14.6963 11.5205 14.5488 12.2248" fill="#F1EA37"/>
</svg>
