<svg width="17" height="21" viewBox="0 0 17 21" fill="none" xmlns="http://www.w3.org/2000/svg">
<path d="M15.999 8.96362C15.999 14.797 8.49902 19.797 8.49902 19.797C8.49902 19.797 0.999023 14.797 0.999023 8.96362C0.999023 6.9745 1.7892 5.06684 3.19572 3.66032C4.60225 2.2538 6.5099 1.46362 8.49902 1.46362C10.4881 1.46362 12.3958 2.2538 13.8023 3.66032C15.2088 5.06684 15.999 6.9745 15.999 8.96362Z" stroke="white" stroke-width="1.5" stroke-linecap="round" stroke-linejoin="round"/>
<path d="M8.49902 11.4636C9.87974 11.4636 10.999 10.3443 10.999 8.96362C10.999 7.58291 9.87974 6.46362 8.49902 6.46362C7.11831 6.46362 5.99902 7.58291 5.99902 8.96362C5.99902 10.3443 7.11831 11.4636 8.49902 11.4636Z" stroke="white" stroke-width="1.5" stroke-linecap="round" stroke-linejoin="round"/>
</svg>
