<svg width="67" height="67" viewBox="0 0 67 67" fill="none" xmlns="http://www.w3.org/2000/svg">
<g clip-path="url(#clip0_144_1314)" filter="url(#filter0_d_144_1314)">
<circle cx="33.5" cy="29.1954" r="25" fill="url(#paint0_linear_144_1314)"/>
<path d="M33.9901 14.9797C25.8683 14.9797 19.2842 21.277 19.2842 29.0465C19.2842 33.4664 21.415 37.4096 24.7478 39.9879V45.3719L29.7666 42.5239C31.1042 42.9074 32.5222 43.1132 33.9901 43.1132C42.1119 43.1132 48.6959 36.8159 48.6959 29.0465C48.6959 21.277 42.1119 14.9797 33.9901 14.9797ZM35.5384 33.8423L31.7354 29.8005L24.411 33.9441L32.4417 25.2267L36.2448 29.2685L43.5691 25.1249L35.5384 33.8423Z" fill="white"/>
</g>
<defs>
<filter id="filter0_d_144_1314" x="0.5" y="0.195435" width="66" height="66" filterUnits="userSpaceOnUse" color-interpolation-filters="sRGB">
<feFlood flood-opacity="0" result="BackgroundImageFix"/>
<feColorMatrix in="SourceAlpha" type="matrix" values="0 0 0 0 0 0 0 0 0 0 0 0 0 0 0 0 0 0 127 0" result="hardAlpha"/>
<feOffset dy="4"/>
<feGaussianBlur stdDeviation="4"/>
<feColorMatrix type="matrix" values="0 0 0 0 0.0229167 0 0 0 0 0.326792 0 0 0 0 0.916667 0 0 0 0.15 0"/>
<feBlend mode="normal" in2="BackgroundImageFix" result="effect1_dropShadow_144_1314"/>
<feBlend mode="normal" in="SourceGraphic" in2="effect1_dropShadow_144_1314" result="shape"/>
</filter>
<linearGradient id="paint0_linear_144_1314" x1="37.9118" y1="54.1954" x2="36.9314" y2="4.19543" gradientUnits="userSpaceOnUse">
<stop stop-color="#0653EA"/>
<stop offset="1" stop-color="#00B2FF"/>
</linearGradient>
<clipPath id="clip0_144_1314">
<rect width="50" height="50" fill="white" transform="translate(8.5 4.19543)"/>
</clipPath>
</defs>
</svg>
