<svg width="67" height="67" viewBox="0 0 67 67" fill="none" xmlns="http://www.w3.org/2000/svg">
<g clip-path="url(#clip0_144_1323)" filter="url(#filter0_d_144_1323)">
<path d="M33.5 54.1954C47.3071 54.1954 58.5 43.0026 58.5 29.1954C58.5 15.3883 47.3071 4.19543 33.5 4.19543C19.6929 4.19543 8.5 15.3883 8.5 29.1954C8.5 43.0026 19.6929 54.1954 33.5 54.1954Z" fill="#EFEFEF"/>
<path d="M27.7163 30.666L26.1477 29.3588L33.9908 22.8229L41.834 29.3588L40.2654 30.666L33.9908 25.4372L27.7163 30.666Z" fill="#6C6868"/>
<path d="M27.7163 35.5679L26.1477 34.2607L33.9908 27.7248L41.834 34.2608L40.2654 35.568L33.9908 30.3392L27.7163 35.5679Z" fill="#6C6868"/>
</g>
<defs>
<filter id="filter0_d_144_1323" x="0.5" y="0.195435" width="66" height="66" filterUnits="userSpaceOnUse" color-interpolation-filters="sRGB">
<feFlood flood-opacity="0" result="BackgroundImageFix"/>
<feColorMatrix in="SourceAlpha" type="matrix" values="0 0 0 0 0 0 0 0 0 0 0 0 0 0 0 0 0 0 127 0" result="hardAlpha"/>
<feOffset dy="4"/>
<feGaussianBlur stdDeviation="4"/>
<feColorMatrix type="matrix" values="0 0 0 0 0.0229167 0 0 0 0 0.326792 0 0 0 0 0.916667 0 0 0 0.15 0"/>
<feBlend mode="normal" in2="BackgroundImageFix" result="effect1_dropShadow_144_1323"/>
<feBlend mode="normal" in="SourceGraphic" in2="effect1_dropShadow_144_1323" result="shape"/>
</filter>
<clipPath id="clip0_144_1323">
<rect width="50" height="50" fill="white" transform="translate(8.5 4.19543)"/>
</clipPath>
</defs>
</svg>
