<svg width="16" height="15" viewBox="0 0 16 15" fill="none" xmlns="http://www.w3.org/2000/svg">
<path d="M14.75 7.25515C14.7526 8.24505 14.5213 9.22156 14.075 10.1051C13.5458 11.164 12.7323 12.0545 11.7256 12.6771C10.7189 13.2997 9.55868 13.6297 8.375 13.6301C7.3851 13.6327 6.40859 13.4015 5.525 12.9551L1.25 14.3801L2.675 10.1051C2.2287 9.22156 1.99742 8.24505 2 7.25515C2.00046 6.07147 2.33046 4.91129 2.95304 3.90456C3.57562 2.89784 4.46619 2.08432 5.525 1.55515C6.40859 1.10885 7.3851 0.877567 8.375 0.880148H8.75C10.3133 0.966392 11.7898 1.62622 12.8969 2.73329C14.0039 3.84037 14.6638 5.31689 14.75 6.88015V7.25515Z" stroke="#DF2127" stroke-width="1.2" stroke-linecap="round" stroke-linejoin="round"/>
</svg>
