<svg width="67" height="67" viewBox="0 0 67 67" fill="none" xmlns="http://www.w3.org/2000/svg">
<g clip-path="url(#clip0_144_1317)" filter="url(#filter0_d_144_1317)">
<path d="M33.5 54.1954C47.3071 54.1954 58.5 43.0026 58.5 29.1954C58.5 15.3883 47.3071 4.19543 33.5 4.19543C19.6929 4.19543 8.5 15.3883 8.5 29.1954C8.5 43.0026 19.6929 54.1954 33.5 54.1954Z" fill="url(#paint0_linear_144_1317)"/>
<path fill-rule="evenodd" clip-rule="evenodd" d="M25.6391 42.4913C26.211 42.4856 26.7829 42.4796 27.3539 42.4796C27.3512 42.4606 27.347 42.4427 27.3416 42.4261C27.3471 42.4425 27.3514 42.4601 27.3541 42.479C27.4843 42.479 27.6146 42.4853 27.7448 42.4979H37.1525C37.9339 42.4979 38.7151 42.4993 39.4964 42.5007C41.0589 42.5035 42.6215 42.5063 44.184 42.4979H44.2166C46.391 42.479 48.1359 40.7658 48.1229 38.662V34.9774C48.1229 34.9544 48.1246 34.9261 48.1264 34.8964C48.1318 34.8039 48.1381 34.6979 48.0968 34.7002C47.9797 34.7066 47.7949 34.747 47.7298 34.81C47.2305 35.132 46.7463 35.4837 46.2621 35.8354C45.2937 36.5388 44.3254 37.2423 43.2359 37.7084C38.9964 39.092 35.2467 39.1576 31.267 38.2275C31.0492 38.1508 30.9455 38.1594 30.7614 38.1746C30.6429 38.1845 30.4909 38.1971 30.2535 38.1915C30.2247 38.1925 30.1947 38.1934 30.1634 38.1943C29.7708 38.2061 29.2008 38.2233 28.5196 38.6243C26.9245 39.0967 24.761 39.1576 23.6431 38.9959C23.6482 39.007 23.6513 39.0166 23.6538 39.0254C23.65 39.0179 23.6464 39.0104 23.6429 39.0028C23.6273 38.9859 23.6078 38.9709 23.5887 38.9565C23.5281 38.9102 23.4737 38.8687 23.5778 38.7824C23.6081 38.7635 23.6385 38.7438 23.6689 38.7243C23.7297 38.6851 23.7905 38.6459 23.8512 38.6123C24.7041 38.0769 25.5049 37.4911 26.0322 36.6282C26.7491 35.7873 26.4168 35.4593 25.7833 34.8342L25.7595 34.8107C22.6731 31.7637 21.7649 28.5308 22.0868 24.182C22.4709 21.7949 23.6038 19.7415 25.238 17.9527C26.2275 16.8693 27.4059 15.9939 28.695 15.2632C28.7137 15.2517 28.7354 15.2424 28.7575 15.2328C28.8205 15.2057 28.8873 15.177 28.8968 15.0931C28.9045 15.0268 28.7945 15.0049 28.7554 15.0049C28.0207 15.0049 27.2955 14.9986 26.5737 14.9922C25.1398 14.9797 23.7192 14.9672 22.2642 15.0049C20.1743 15.0616 18.2697 16.4541 18.3042 18.9353C18.3129 23.3194 18.31 27.7007 18.3071 32.081C18.3056 34.2709 18.3042 36.4604 18.3042 38.6501C18.3042 40.6845 19.9123 42.3915 22.0153 42.4734C23.2215 42.5161 24.4308 42.5037 25.6391 42.4913ZM23.7241 39.1386C23.7295 39.1459 23.7349 39.1531 23.7405 39.1603C23.8546 39.2582 23.9676 39.357 24.0801 39.4567C23.9713 39.3556 23.8587 39.2545 23.7408 39.1534C23.7348 39.1482 23.7292 39.1433 23.7241 39.1386ZM27.0705 42.1733C27.0299 42.1479 26.9907 42.1211 26.957 42.0885C26.954 42.0881 26.9508 42.0874 26.9475 42.0866C26.9506 42.0895 26.9537 42.0925 26.9567 42.0954C26.9905 42.125 27.0298 42.1496 27.0705 42.1733Z" fill="white"/>
<path d="M28.3696 28.383C29.3527 28.383 30.2773 28.3767 31.1952 28.383C31.7095 28.3893 31.9895 28.5971 32.0416 28.994C32.1002 29.4916 31.8007 29.8254 31.2408 29.8317C30.1861 29.8443 29.1378 29.838 28.0832 29.838C27.7771 29.838 27.4777 29.8507 27.1717 29.8317C26.7941 29.8128 26.4229 29.7372 26.2407 29.3593C26.0584 28.9813 26.1886 28.6412 26.436 28.3326C27.4386 27.0982 28.4477 25.8572 29.4569 24.6227C29.5154 24.5471 29.5741 24.4716 29.6327 24.4022C29.5676 24.2952 29.4765 24.3455 29.3983 24.3393C28.6952 24.333 27.9856 24.3393 27.2824 24.333C27.1196 24.333 26.9568 24.3141 26.8006 24.2826C26.4295 24.2008 26.2016 23.8417 26.2862 23.489C26.3449 23.2496 26.5402 23.0544 26.7876 22.9977C26.9439 22.9599 27.1066 22.941 27.2693 22.941C28.4283 22.9347 29.5936 22.9347 30.7525 22.941C30.9609 22.9347 31.1627 22.9599 31.3645 23.0103C31.8073 23.1552 31.996 23.552 31.8202 23.9677C31.664 24.3267 31.4166 24.6353 31.1692 24.944C30.3164 25.9959 29.4634 27.0415 28.6106 28.0807C28.539 28.1626 28.4739 28.2444 28.3696 28.383Z" fill="white"/>
<path d="M35.9216 25.0706C36.0779 24.8753 36.2406 24.6927 36.5075 24.6423C37.0218 24.5415 37.5037 24.8627 37.5101 25.3667C37.5297 26.6264 37.5232 27.8861 37.5101 29.1459C37.5101 29.4734 37.2888 29.7632 36.9698 29.8576C36.6442 29.9773 36.2731 29.8828 36.0583 29.6119C35.9476 29.4797 35.9021 29.4546 35.7458 29.5742C35.1533 30.0403 34.4827 30.1222 33.76 29.8955C32.6012 29.5301 32.1259 28.6546 31.9957 27.5901C31.859 26.4374 32.2562 25.4549 33.3239 24.8501C34.2092 24.34 35.1077 24.3841 35.9216 25.0706ZM33.6168 27.3697C33.6298 27.6468 33.7209 27.9114 33.8902 28.1318C34.2418 28.5853 34.9124 28.6798 35.3877 28.3397C35.4658 28.283 35.5374 28.2136 35.6025 28.1318C35.9672 27.6531 35.9672 26.8658 35.6025 26.3871C35.4202 26.1414 35.1338 25.9965 34.8277 25.9902C34.1116 25.9461 33.6104 26.4815 33.6168 27.3697ZM40.4334 27.4074C40.3813 25.7886 41.4816 24.5793 43.0441 24.5352C44.7043 24.4849 45.9154 25.5619 45.9674 27.1366C46.0195 28.7301 45.0104 29.8576 43.4543 30.0088C41.755 30.1726 40.4074 28.9822 40.4334 27.4074ZM42.0675 27.2563C42.0546 27.5713 42.1522 27.8799 42.3475 28.1381C42.7056 28.5916 43.3762 28.6798 43.845 28.3271C43.9166 28.2767 43.9751 28.2136 44.0338 28.1507C44.4114 27.6719 44.4114 26.8658 44.0402 26.3871C43.858 26.1477 43.5715 25.9965 43.2655 25.9902C42.5624 25.9524 42.0675 26.469 42.0675 27.2563ZM39.8605 26.154C39.8605 27.1303 39.867 28.1066 39.8605 29.0828C39.867 29.5301 39.5024 29.9017 39.0401 29.9143C38.9621 29.9143 38.8774 29.9081 38.7992 29.8891C38.4738 29.8073 38.2263 29.4734 38.2263 29.0766V24.0691C38.2263 23.7731 38.2198 23.4833 38.2263 23.1873C38.2329 22.7023 38.5518 22.3874 39.0337 22.3874C39.5284 22.381 39.8605 22.696 39.8605 23.1999C39.867 24.1825 39.8605 25.1714 39.8605 26.154Z" fill="white"/>
</g>
<defs>
<filter id="filter0_d_144_1317" x="0.5" y="0.195435" width="66" height="66" filterUnits="userSpaceOnUse" color-interpolation-filters="sRGB">
<feFlood flood-opacity="0" result="BackgroundImageFix"/>
<feColorMatrix in="SourceAlpha" type="matrix" values="0 0 0 0 0 0 0 0 0 0 0 0 0 0 0 0 0 0 127 0" result="hardAlpha"/>
<feOffset dy="4"/>
<feGaussianBlur stdDeviation="4"/>
<feColorMatrix type="matrix" values="0 0 0 0 0.0229167 0 0 0 0 0.326792 0 0 0 0 0.916667 0 0 0 0.15 0"/>
<feBlend mode="normal" in2="BackgroundImageFix" result="effect1_dropShadow_144_1317"/>
<feBlend mode="normal" in="SourceGraphic" in2="effect1_dropShadow_144_1317" result="shape"/>
</filter>
<linearGradient id="paint0_linear_144_1317" x1="33.5" y1="4.19543" x2="33.5" y2="54.1954" gradientUnits="userSpaceOnUse">
<stop stop-color="#5FA0FF"/>
<stop offset="1" stop-color="#035ADA"/>
</linearGradient>
<clipPath id="clip0_144_1317">
<rect width="50" height="50" fill="white" transform="translate(8.5 4.19543)"/>
</clipPath>
</defs>
</svg>
