<svg width="91" height="60" viewBox="0 0 91 60" fill="none" xmlns="http://www.w3.org/2000/svg">
<g clip-path="url(#clip0_144_1442)">
<path d="M80.6881 0H51.7041L48.4973 4.15466H48.5091L39.1611 16.2744H39.1453L35.9385 20.429H56.3841V16.2744H44.3782L53.7301 4.15466H80.6842C84.0608 4.15466 86.8016 6.86966 86.8016 10.2145C86.8016 13.5633 84.0608 16.2744 80.6842 16.2744H72.438V20.429H80.6842C86.3791 20.429 90.9958 15.8558 90.9958 10.2145C90.9998 4.57325 86.383 0 80.6881 0Z" fill="white"/>
<path d="M74.5392 28.3589V10.0659C74.5392 4.52632 70.0054 0.0352173 64.4131 0.0352173C58.8209 0.0352173 54.2871 4.52632 54.2871 10.0659V32.7717V49.852C54.2871 55.3916 58.8209 59.8827 64.4131 59.8827C70.0054 59.8827 74.5392 55.3916 74.5392 49.852V28.3589ZM64.4171 4.18988C67.6871 4.18988 70.349 6.82664 70.349 10.0659V28.3589H58.4892V10.0659C58.4852 6.82664 61.1471 4.18988 64.4171 4.18988Z" fill="white"/>
<path d="M35.3818 25.0531C32.0407 21.4031 27.4595 19.5527 21.7606 19.5527C21.6816 19.5527 16.2671 19.5566 13.6092 19.5566C12.5666 19.5566 11.5675 19.7522 10.6512 20.1043C9.43088 20.5699 8.34877 21.3132 7.48782 22.2599C6.1648 23.7113 5.35914 25.636 5.36309 27.7486C5.37099 32.2592 9.06359 35.9131 13.6171 35.9131C13.6211 35.9131 13.625 35.9131 13.629 35.9131C13.629 35.9131 16.7568 35.9288 17.0807 35.9288C18.4787 35.9288 20.3152 36.3669 20.3152 37.9318C20.3152 39.4966 18.7394 39.7861 17.4638 39.7861C17.1597 39.7861 16.1289 39.7744 15.884 39.7744L10.0154 39.7666C10.0114 39.7666 10.0075 39.7666 10.0035 39.7666C4.49029 39.7666 0.0157216 44.1873 0.00782295 49.6525C-7.56693e-05 55.1255 4.47054 59.9883 9.99563 59.9961C13.2183 60 17.9614 60.0039 18.0601 60.0039C24.9596 60.0039 30.5083 57.7623 34.5524 53.3416C38.478 49.0539 40.4685 44.2029 40.4685 38.9333C40.4606 32.58 38.3793 28.3315 35.3818 25.0531ZM31.4364 50.5483C28.1743 54.1123 23.7945 55.8453 18.0522 55.8453C17.9535 55.8453 13.2143 55.8414 9.99168 55.8375C8.51069 55.8375 7.08499 55.192 5.97128 54.0223C4.83783 52.833 4.19014 51.2408 4.19409 49.6564C4.19804 46.4915 6.80064 43.9173 10.0035 43.9173L16.6265 43.9251C16.7174 43.9251 16.8161 43.9291 16.9227 43.9291C17.0925 43.933 17.2742 43.9369 17.4598 43.9369C22.665 43.9369 24.5133 40.6194 24.5133 37.7753C24.5133 35.2403 23.0836 33.1903 20.6904 32.2944C19.4542 31.8328 18.2102 31.7663 17.0491 31.7663C16.7292 31.7663 13.6527 31.7507 13.6527 31.7507H13.629H13.6171C11.3818 31.7507 9.5612 29.9511 9.55725 27.7368C9.55725 26.7392 9.92454 25.7808 10.5999 25.0375C11.0264 24.568 11.5635 24.2003 12.1559 23.9773C12.6219 23.8013 13.1116 23.7074 13.6092 23.7074C16.2671 23.7035 21.6777 23.7035 21.7567 23.7035C26.2826 23.7035 29.7224 25.057 32.2697 27.8386C34.6354 30.4245 36.2625 33.9219 36.2625 38.9255C36.2664 43.1388 34.6433 47.047 31.4364 50.5483Z" fill="white"/>
<path d="M6.2557 31.3947C4.77865 28.4841 5.20123 25.2174 7.22723 22.6355C7.22723 22.6355 9.9562 19.631 9.9404 19.631C4.51405 19.6975 0.0947723 15.4528 0.0908229 10.2067V9.62379C0.0868736 4.30723 4.5259 0 9.99964 0H46.6729L21.1604 32.2123C14.3004 38.8629 7.73274 34.3092 6.2557 31.3947Z" fill="white"/>
</g>
<defs>
<clipPath id="clip0_144_1442">
<rect width="91" height="60" fill="white"/>
</clipPath>
</defs>
</svg>
